# xmcd CD Database Entry
#
# Track frame offsets:
# 150
# 69579
# 83223
# 104110
# 127298
# 140592
# 157726
# 173036
# 184863
# 205567
# 227612
#
# Disc length: 3368 seconds
#
# Revision: 2
# Processed by: cddbd v1.4PL0 Copyright (c) Steve Scherf et al.
# Submitted via: tcd 2.0b
#
DISCID=970d260b
DTITLE=Hollistic Design - Emperor of the Fading Suns
DYEAR=1900
DGENRE=
TTITLE0=Program
TTITLE1=Fading Suns
TTITLE2=Battle
TTITLE3=For the Fallen
TTITLE4=Madrigal
TTITLE5=Gothic March
TTITLE6=Confrontation
TTITLE7=After the Battle
TTITLE8=Sanctus
TTITLE9=Finale
TTITLE10=The Gateway
EXTD=
EXTT0=
EXTT1=
EXTT2=
EXTT3=
EXTT4=
EXTT5=
EXTT6=
EXTT7=
EXTT8=
EXTT9=
EXTT10=
PLAYORDER=
